<?xml version="1.0" encoding="UTF-8" standalone="no"?><!-- Generator: Gravit.io --><svg xmlns="http://www.w3.org/2000/svg" xmlns:xlink="http://www.w3.org/1999/xlink" style="isolation:isolate" viewBox="0 0 96 96" width="96pt" height="96pt"><defs><clipPath id="_clipPath_fjdKpOscWXVqZokf8TfSCXdNgudP5gjV"><rect width="96" height="96"/></clipPath></defs><g clip-path="url(#_clipPath_fjdKpOscWXVqZokf8TfSCXdNgudP5gjV)"><g><path d=" M 37.5 7.9 C 32.5 10.1 26.6 16.5 25 21.5 C 24.3 23.5 24 28.2 24.2 32 C 24.5 37.6 25.3 40.4 28.8 47.2 C 33.7 57 45.8 73.5 48 73.5 C 50.2 73.5 62.5 56.7 67.3 47.1 C 74.1 33.4 73.7 22.1 66.1 13.7 C 61.2 8.2 56 6 48 6 C 43.8 6 40.1 6.7 37.5 7.9 Z  M 53.4 24.6 C 54.9 26.2 56 28.4 56 30 C 56 33.6 51.6 38 48 38 C 44.3 38 40 33.6 40 29.8 C 40 28.1 41 25.9 42.5 24.5 C 45.7 21.2 50 21.2 53.4 24.6 Z " fill="rgb(33,116,212)"/><mask id="_mask_Q8XtKpKvW7dGCsYRXxWDzlP06FT7Hvsw" x="-200%" y="-200%" width="400%" height="400%"><rect x="-200%" y="-200%" width="400%" height="400%" style="fill:white;"/><path d=" M 13.3 75.3 C 10.4 82.6 8 88.9 8 89.3 C 8 89.7 26 90 48 90 C 70 90 88 89.7 88 89.3 C 88 88.9 85.6 82.6 82.8 75.3 L 77.5 62 L 71.9 62 C 66.4 62 66.2 62.1 63.6 66 L 61 70 L 65.9 70 L 70.7 70 L 72.9 75.1 C 74 78 75 80.7 75 81.1 C 75 81.6 62.9 82 48 82 C 33.2 82 21 81.6 21 81.1 C 21 80.7 22 78 23.1 75.1 L 25.3 70 L 30.1 70 L 35 70 L 32.4 66 C 29.8 62.1 29.6 62 24.1 62 L 18.5 62 L 13.3 75.3 Z " fill="black" stroke="none"/></mask><path d=" M 13.3 75.3 C 10.4 82.6 8 88.9 8 89.3 C 8 89.7 26 90 48 90 C 70 90 88 89.7 88 89.3 C 88 88.9 85.6 82.6 82.8 75.3 L 77.5 62 L 71.9 62 C 66.4 62 66.2 62.1 63.6 66 L 61 70 L 65.9 70 L 70.7 70 L 72.9 75.1 C 74 78 75 80.7 75 81.1 C 75 81.6 62.9 82 48 82 C 33.2 82 21 81.6 21 81.1 C 21 80.7 22 78 23.1 75.1 L 25.3 70 L 30.1 70 L 35 70 L 32.4 66 C 29.8 62.1 29.6 62 24.1 62 L 18.5 62 L 13.3 75.3 Z " fill="rgb(20,55,86)"/><path d=" M 13.3 75.3 C 10.4 82.6 8 88.9 8 89.3 C 8 89.7 26 90 48 90 C 70 90 88 89.7 88 89.3 C 88 88.9 85.6 82.6 82.8 75.3 L 77.5 62 L 71.9 62 C 66.4 62 66.2 62.1 63.6 66 L 61 70 L 65.9 70 L 70.7 70 L 72.9 75.1 C 74 78 75 80.7 75 81.1 C 75 81.6 62.9 82 48 82 C 33.2 82 21 81.6 21 81.1 C 21 80.7 22 78 23.1 75.1 L 25.3 70 L 30.1 70 L 35 70 L 32.4 66 C 29.8 62.1 29.6 62 24.1 62 L 18.5 62 L 13.3 75.3 Z " fill="rgb(20,55,86)" mask="url(#_mask_Q8XtKpKvW7dGCsYRXxWDzlP06FT7Hvsw)" vector-effect="non-scaling-stroke" stroke-width="0.2" stroke="rgb(20,55,86)" stroke-linejoin="miter" stroke-linecap="butt" stroke-miterlimit="4"/></g></g></svg>